<mxfile modified="2021-05-05T06:58:44.646Z" host="app.diagrams.net" agent="5.0 (Windows NT 10.0; Win64; x64) AppleWebKit/537.36 (KHTML, like Gecko) Chrome/90.0.4430.93 Safari/537.36" etag="VdN_T4OJI0JxcHsGSlU7" compressed="false" version="14.6.9" type="google" pages="5">
  <diagram name="SERVICE CLIENT SYSTEM/" id="dKvw_p4JPbCpXHPm8qmg">
    <mxGraphModel dx="1130" dy="406" grid="1" gridSize="10" guides="1" tooltips="1" connect="1" arrows="1" fold="1" page="1" pageScale="1" pageWidth="827" pageHeight="1169" math="0" shadow="0">
      <root>
        <mxCell id="OwfnAFEwopCYcP2-hbOk-0" />
        <mxCell id="OwfnAFEwopCYcP2-hbOk-1" value="Title" parent="OwfnAFEwopCYcP2-hbOk-0" />
        <mxCell id="OwfnAFEwopCYcP2-hbOk-2" value="Service Client &lt;br&gt;View" style="text;html=1;strokeColor=none;fillColor=none;align=center;verticalAlign=middle;whiteSpace=wrap;rounded=0;fontSize=48;opacity=30;" parent="OwfnAFEwopCYcP2-hbOk-1" vertex="1">
          <mxGeometry x="160" y="280" width="480" height="120" as="geometry" />
        </mxCell>
        <mxCell id="OwfnAFEwopCYcP2-hbOk-3" value="About" parent="OwfnAFEwopCYcP2-hbOk-0" />
        <UserObject label="" tooltip="ABOUT&#xa;&#xa;Mainstream development has focused on various aspects over the previous years:&#xa;&#xa;&#xa;&#xa;- Code Quality&#xa;&#xa;- Test Coverage&#xa;&#xa;- Deverlopment Approach&#xa;&#xa;- Security&#xa;&#xa;&#xa;&#xa;The focus is now on Privacy.&#xa;&#xa;" id="OwfnAFEwopCYcP2-hbOk-4">
          <mxCell style="shape=image;html=1;verticalAlign=top;verticalLabelPosition=bottom;labelBackgroundColor=#ffffff;imageAspect=0;aspect=fixed;image=https://cdn1.iconfinder.com/data/icons/hawcons/32/699014-icon-28-information-128.png;shadow=0;dashed=0;fontFamily=Helvetica;fontSize=12;fontColor=#000000;align=center;strokeColor=#000000;fillColor=#505050;dashPattern=1 1;" parent="OwfnAFEwopCYcP2-hbOk-3" vertex="1">
            <mxGeometry x="620" y="380" width="20" height="20" as="geometry" />
          </mxCell>
        </UserObject>
      </root>
    </mxGraphModel>
  </diagram>
  <diagram name="Service Client/Development/Views/NavigationPaths" id="ulvfxOsLhrV_1fZBRe39">
    <mxGraphModel dx="1422" dy="762" grid="1" gridSize="10" guides="1" tooltips="1" connect="1" arrows="1" fold="1" page="1" pageScale="1" pageWidth="827" pageHeight="1169" math="0" shadow="0">
      <root>
        <mxCell id="uyxOO_V6k_ypG8L3T8s6-0" />
        <mxCell id="uyxOO_V6k_ypG8L3T8s6-1" value="Diagram" parent="uyxOO_V6k_ypG8L3T8s6-0" />
        <mxCell id="VPX1oHksv8zwOihtb0R_-0" value="Dynamically Rewritten As" style="text;html=1;strokeColor=none;fillColor=#f5f5f5;align=left;verticalAlign=middle;whiteSpace=wrap;rounded=0;fontSize=12;fontFamily=Helvetica;fontColor=#333333;fontStyle=0" parent="uyxOO_V6k_ypG8L3T8s6-1" vertex="1">
          <mxGeometry x="320" y="200" width="160" height="20" as="geometry" />
        </mxCell>
        <mxCell id="VPX1oHksv8zwOihtb0R_-1" value="URL" style="text;html=1;strokeColor=none;fillColor=#f5f5f5;align=left;verticalAlign=middle;whiteSpace=wrap;rounded=0;fontSize=12;fontFamily=Helvetica;fontColor=#333333;fontStyle=0" parent="uyxOO_V6k_ypG8L3T8s6-1" vertex="1">
          <mxGeometry x="160" y="200" width="140" height="20" as="geometry" />
        </mxCell>
        <mxCell id="VPX1oHksv8zwOihtb0R_-2" value="&lt;font style=&quot;font-size: 10px;&quot;&gt;VERB&lt;/font&gt;" style="text;html=1;strokeColor=none;fillColor=#f5f5f5;align=left;verticalAlign=middle;whiteSpace=wrap;rounded=0;fontSize=10;fontFamily=Helvetica;fontColor=#333333;fontStyle=0" parent="uyxOO_V6k_ypG8L3T8s6-1" vertex="1">
          <mxGeometry x="120" y="200" width="30" height="20" as="geometry" />
        </mxCell>
        <mxCell id="VPX1oHksv8zwOihtb0R_-3" value="&lt;font style=&quot;font-size: 10px&quot;&gt;SearchItems/{type}/{term}&lt;/font&gt;" style="text;html=1;strokeColor=none;fillColor=none;align=left;verticalAlign=middle;whiteSpace=wrap;rounded=0;dashed=1;fontSize=10;fontFamily=Courier New;" parent="uyxOO_V6k_ypG8L3T8s6-1" vertex="1">
          <mxGeometry x="160" y="240" width="160" height="20" as="geometry" />
        </mxCell>
        <mxCell id="VPX1oHksv8zwOihtb0R_-4" value="GET" style="text;html=1;strokeColor=none;fillColor=none;align=left;verticalAlign=middle;whiteSpace=wrap;rounded=0;dashed=1;fontSize=12;fontFamily=Courier New;" parent="uyxOO_V6k_ypG8L3T8s6-1" vertex="1">
          <mxGeometry x="120" y="240" width="40" height="20" as="geometry" />
        </mxCell>
        <mxCell id="VPX1oHksv8zwOihtb0R_-10" value="GET" style="text;html=1;strokeColor=none;fillColor=none;align=left;verticalAlign=middle;whiteSpace=wrap;rounded=0;dashed=1;fontSize=12;fontFamily=Courier New;" parent="uyxOO_V6k_ypG8L3T8s6-1" vertex="1">
          <mxGeometry x="120" y="540" width="40" height="20" as="geometry" />
        </mxCell>
        <mxCell id="VPX1oHksv8zwOihtb0R_-11" value="Tenants/{id}" style="text;html=1;strokeColor=none;fillColor=none;align=left;verticalAlign=middle;whiteSpace=wrap;rounded=0;dashed=1;fontSize=10;fontFamily=Courier New;" parent="uyxOO_V6k_ypG8L3T8s6-1" vertex="1">
          <mxGeometry x="160" y="540" width="140" height="20" as="geometry" />
        </mxCell>
        <mxCell id="VPX1oHksv8zwOihtb0R_-12" value="GET" style="text;html=1;strokeColor=none;fillColor=none;align=left;verticalAlign=middle;whiteSpace=wrap;rounded=0;dashed=1;fontSize=12;fontFamily=Courier New;" parent="uyxOO_V6k_ypG8L3T8s6-1" vertex="1">
          <mxGeometry x="120" y="580" width="40" height="20" as="geometry" />
        </mxCell>
        <mxCell id="VPX1oHksv8zwOihtb0R_-13" value="Organisations/{id}" style="text;html=1;strokeColor=none;fillColor=none;align=left;verticalAlign=middle;whiteSpace=wrap;rounded=0;dashed=1;fontSize=10;fontFamily=Courier New;" parent="uyxOO_V6k_ypG8L3T8s6-1" vertex="1">
          <mxGeometry x="160" y="580" width="140" height="20" as="geometry" />
        </mxCell>
        <mxCell id="VPX1oHksv8zwOihtb0R_-14" value="GET" style="text;html=1;strokeColor=none;fillColor=none;align=left;verticalAlign=middle;whiteSpace=wrap;rounded=0;dashed=1;fontSize=12;fontFamily=Courier New;" parent="uyxOO_V6k_ypG8L3T8s6-1" vertex="1">
          <mxGeometry x="120" y="620" width="40" height="20" as="geometry" />
        </mxCell>
        <mxCell id="VPX1oHksv8zwOihtb0R_-15" value="Groups/{id}" style="text;html=1;strokeColor=none;fillColor=none;align=left;verticalAlign=middle;whiteSpace=wrap;rounded=0;dashed=1;fontSize=10;fontFamily=Courier New;" parent="uyxOO_V6k_ypG8L3T8s6-1" vertex="1">
          <mxGeometry x="160" y="620" width="140" height="20" as="geometry" />
        </mxCell>
        <mxCell id="VPX1oHksv8zwOihtb0R_-16" value="GET" style="text;html=1;strokeColor=none;fillColor=none;align=left;verticalAlign=middle;whiteSpace=wrap;rounded=0;dashed=1;fontSize=12;fontFamily=Courier New;" parent="uyxOO_V6k_ypG8L3T8s6-1" vertex="1">
          <mxGeometry x="120" y="640" width="40" height="20" as="geometry" />
        </mxCell>
        <mxCell id="VPX1oHksv8zwOihtb0R_-17" value="Members" style="text;html=1;strokeColor=none;fillColor=none;align=left;verticalAlign=middle;whiteSpace=wrap;rounded=0;dashed=1;fontSize=10;fontFamily=Courier New;" parent="uyxOO_V6k_ypG8L3T8s6-1" vertex="1">
          <mxGeometry x="160" y="640" width="140" height="20" as="geometry" />
        </mxCell>
        <mxCell id="VPX1oHksv8zwOihtb0R_-19" value="GET" style="text;html=1;strokeColor=none;fillColor=none;align=left;verticalAlign=middle;whiteSpace=wrap;rounded=0;dashed=1;fontSize=12;fontFamily=Courier New;" parent="uyxOO_V6k_ypG8L3T8s6-1" vertex="1">
          <mxGeometry x="120" y="660" width="40" height="20" as="geometry" />
        </mxCell>
        <mxCell id="VPX1oHksv8zwOihtb0R_-20" value="Members/{id}" style="text;html=1;strokeColor=none;fillColor=none;align=left;verticalAlign=middle;whiteSpace=wrap;rounded=0;dashed=1;fontSize=10;fontFamily=Courier New;" parent="uyxOO_V6k_ypG8L3T8s6-1" vertex="1">
          <mxGeometry x="160" y="660" width="140" height="20" as="geometry" />
        </mxCell>
        <mxCell id="VPX1oHksv8zwOihtb0R_-21" value="GET" style="text;html=1;strokeColor=none;fillColor=none;align=left;verticalAlign=middle;whiteSpace=wrap;rounded=0;dashed=1;fontSize=12;fontFamily=Courier New;" parent="uyxOO_V6k_ypG8L3T8s6-1" vertex="1">
          <mxGeometry x="120" y="600" width="40" height="20" as="geometry" />
        </mxCell>
        <mxCell id="VPX1oHksv8zwOihtb0R_-22" value="Groups" style="text;html=1;strokeColor=none;fillColor=none;align=left;verticalAlign=middle;whiteSpace=wrap;rounded=0;dashed=1;fontSize=10;fontFamily=Courier New;" parent="uyxOO_V6k_ypG8L3T8s6-1" vertex="1">
          <mxGeometry x="160" y="600" width="140" height="20" as="geometry" />
        </mxCell>
        <mxCell id="VPX1oHksv8zwOihtb0R_-23" value="GET" style="text;html=1;strokeColor=none;fillColor=none;align=left;verticalAlign=middle;whiteSpace=wrap;rounded=0;dashed=1;fontSize=12;fontFamily=Courier New;" parent="uyxOO_V6k_ypG8L3T8s6-1" vertex="1">
          <mxGeometry x="120" y="560" width="40" height="20" as="geometry" />
        </mxCell>
        <mxCell id="VPX1oHksv8zwOihtb0R_-24" value="Organisations" style="text;html=1;strokeColor=none;fillColor=none;align=left;verticalAlign=middle;whiteSpace=wrap;rounded=0;dashed=1;fontSize=10;fontFamily=Courier New;" parent="uyxOO_V6k_ypG8L3T8s6-1" vertex="1">
          <mxGeometry x="160" y="560" width="140" height="20" as="geometry" />
        </mxCell>
        <mxCell id="VPX1oHksv8zwOihtb0R_-25" value="GET" style="text;html=1;strokeColor=none;fillColor=none;align=left;verticalAlign=middle;whiteSpace=wrap;rounded=0;dashed=1;fontSize=12;fontFamily=Courier New;" parent="uyxOO_V6k_ypG8L3T8s6-1" vertex="1">
          <mxGeometry x="120" y="520" width="40" height="20" as="geometry" />
        </mxCell>
        <mxCell id="VPX1oHksv8zwOihtb0R_-26" value="Tenants" style="text;html=1;strokeColor=none;fillColor=none;align=left;verticalAlign=middle;whiteSpace=wrap;rounded=0;dashed=1;fontSize=10;fontFamily=Courier New;" parent="uyxOO_V6k_ypG8L3T8s6-1" vertex="1">
          <mxGeometry x="160" y="520" width="140" height="20" as="geometry" />
        </mxCell>
        <mxCell id="VPX1oHksv8zwOihtb0R_-27" value="GET" style="text;html=1;strokeColor=none;fillColor=none;align=left;verticalAlign=middle;whiteSpace=wrap;rounded=0;dashed=1;fontSize=12;fontFamily=Courier New;" parent="uyxOO_V6k_ypG8L3T8s6-1" vertex="1">
          <mxGeometry x="120" y="320" width="40" height="20" as="geometry" />
        </mxCell>
        <mxCell id="VPX1oHksv8zwOihtb0R_-28" value="ErrorRecords" style="text;html=1;strokeColor=none;fillColor=none;align=left;verticalAlign=middle;whiteSpace=wrap;rounded=0;dashed=1;fontSize=10;fontFamily=Courier New;" parent="uyxOO_V6k_ypG8L3T8s6-1" vertex="1">
          <mxGeometry x="160" y="320" width="140" height="20" as="geometry" />
        </mxCell>
        <mxCell id="VPX1oHksv8zwOihtb0R_-29" value="GET" style="text;html=1;strokeColor=none;fillColor=none;align=left;verticalAlign=middle;whiteSpace=wrap;rounded=0;dashed=1;fontSize=12;fontFamily=Courier New;" parent="uyxOO_V6k_ypG8L3T8s6-1" vertex="1">
          <mxGeometry x="120" y="340" width="40" height="20" as="geometry" />
        </mxCell>
        <mxCell id="VPX1oHksv8zwOihtb0R_-30" value="ErrorRecords/{id}" style="text;html=1;strokeColor=none;fillColor=none;align=left;verticalAlign=middle;whiteSpace=wrap;rounded=0;dashed=1;fontSize=10;fontFamily=Courier New;" parent="uyxOO_V6k_ypG8L3T8s6-1" vertex="1">
          <mxGeometry x="160" y="340" width="140" height="20" as="geometry" />
        </mxCell>
        <mxCell id="VPX1oHksv8zwOihtb0R_-31" value="GET" style="text;html=1;strokeColor=none;fillColor=none;align=left;verticalAlign=middle;whiteSpace=wrap;rounded=0;dashed=1;fontSize=12;fontFamily=Courier New;" parent="uyxOO_V6k_ypG8L3T8s6-1" vertex="1">
          <mxGeometry x="120" y="280" width="40" height="20" as="geometry" />
        </mxCell>
        <mxCell id="VPX1oHksv8zwOihtb0R_-32" value="DiagnosticLogs" style="text;html=1;strokeColor=none;fillColor=none;align=left;verticalAlign=middle;whiteSpace=wrap;rounded=0;dashed=1;fontSize=10;fontFamily=Courier New;" parent="uyxOO_V6k_ypG8L3T8s6-1" vertex="1">
          <mxGeometry x="160" y="280" width="140" height="20" as="geometry" />
        </mxCell>
        <mxCell id="VPX1oHksv8zwOihtb0R_-33" value="GET" style="text;html=1;strokeColor=none;fillColor=none;align=left;verticalAlign=middle;whiteSpace=wrap;rounded=0;dashed=1;fontSize=12;fontFamily=Courier New;" parent="uyxOO_V6k_ypG8L3T8s6-1" vertex="1">
          <mxGeometry x="120" y="300" width="40" height="20" as="geometry" />
        </mxCell>
        <mxCell id="VPX1oHksv8zwOihtb0R_-34" value="DiagnosticLogs/{id}" style="text;html=1;strokeColor=none;fillColor=none;align=left;verticalAlign=middle;whiteSpace=wrap;rounded=0;dashed=1;fontSize=10;fontFamily=Courier New;" parent="uyxOO_V6k_ypG8L3T8s6-1" vertex="1">
          <mxGeometry x="160" y="300" width="140" height="20" as="geometry" />
        </mxCell>
        <mxCell id="VPX1oHksv8zwOihtb0R_-35" value="GET" style="text;html=1;strokeColor=none;fillColor=none;align=left;verticalAlign=middle;whiteSpace=wrap;rounded=0;dashed=1;fontSize=12;fontFamily=Courier New;" parent="uyxOO_V6k_ypG8L3T8s6-1" vertex="1">
          <mxGeometry x="120" y="360" width="40" height="20" as="geometry" />
        </mxCell>
        <mxCell id="VPX1oHksv8zwOihtb0R_-36" value="Sessions" style="text;html=1;strokeColor=none;fillColor=none;align=left;verticalAlign=middle;whiteSpace=wrap;rounded=0;dashed=1;fontSize=10;fontFamily=Courier New;" parent="uyxOO_V6k_ypG8L3T8s6-1" vertex="1">
          <mxGeometry x="160" y="360" width="140" height="20" as="geometry" />
        </mxCell>
        <mxCell id="VPX1oHksv8zwOihtb0R_-37" value="GET" style="text;html=1;strokeColor=none;fillColor=none;align=left;verticalAlign=middle;whiteSpace=wrap;rounded=0;dashed=1;fontSize=12;fontFamily=Courier New;" parent="uyxOO_V6k_ypG8L3T8s6-1" vertex="1">
          <mxGeometry x="120" y="380" width="40" height="20" as="geometry" />
        </mxCell>
        <mxCell id="VPX1oHksv8zwOihtb0R_-38" value="Sessions/{id}" style="text;html=1;strokeColor=none;fillColor=none;align=left;verticalAlign=middle;whiteSpace=wrap;rounded=0;dashed=1;fontSize=10;fontFamily=Courier New;" parent="uyxOO_V6k_ypG8L3T8s6-1" vertex="1">
          <mxGeometry x="160" y="380" width="140" height="20" as="geometry" />
        </mxCell>
        <mxCell id="VPX1oHksv8zwOihtb0R_-39" value="GET" style="text;html=1;strokeColor=none;fillColor=none;align=left;verticalAlign=middle;whiteSpace=wrap;rounded=0;dashed=1;fontSize=12;fontFamily=Courier New;" parent="uyxOO_V6k_ypG8L3T8s6-1" vertex="1">
          <mxGeometry x="120" y="400" width="40" height="20" as="geometry" />
        </mxCell>
        <mxCell id="VPX1oHksv8zwOihtb0R_-40" value="SessionLogs" style="text;html=1;strokeColor=none;fillColor=none;align=left;verticalAlign=middle;whiteSpace=wrap;rounded=0;dashed=1;fontSize=10;fontFamily=Courier New;" parent="uyxOO_V6k_ypG8L3T8s6-1" vertex="1">
          <mxGeometry x="160" y="400" width="140" height="20" as="geometry" />
        </mxCell>
        <mxCell id="VPX1oHksv8zwOihtb0R_-41" value="GET" style="text;html=1;strokeColor=none;fillColor=none;align=left;verticalAlign=middle;whiteSpace=wrap;rounded=0;dashed=1;fontSize=12;fontFamily=Courier New;" parent="uyxOO_V6k_ypG8L3T8s6-1" vertex="1">
          <mxGeometry x="120" y="420" width="40" height="20" as="geometry" />
        </mxCell>
        <mxCell id="VPX1oHksv8zwOihtb0R_-42" value="SessionLogs/{id}" style="text;html=1;strokeColor=none;fillColor=none;align=left;verticalAlign=middle;whiteSpace=wrap;rounded=0;dashed=1;fontSize=10;fontFamily=Courier New;" parent="uyxOO_V6k_ypG8L3T8s6-1" vertex="1">
          <mxGeometry x="160" y="420" width="140" height="20" as="geometry" />
        </mxCell>
        <mxCell id="VPX1oHksv8zwOihtb0R_-43" value="GET" style="text;html=1;strokeColor=none;fillColor=none;align=left;verticalAlign=middle;whiteSpace=wrap;rounded=0;dashed=1;fontSize=12;fontFamily=Courier New;" parent="uyxOO_V6k_ypG8L3T8s6-1" vertex="1">
          <mxGeometry x="120" y="480" width="40" height="20" as="geometry" />
        </mxCell>
        <mxCell id="VPX1oHksv8zwOihtb0R_-44" value="Logins" style="text;html=1;strokeColor=none;fillColor=none;align=left;verticalAlign=middle;whiteSpace=wrap;rounded=0;dashed=1;fontSize=10;fontFamily=Courier New;" parent="uyxOO_V6k_ypG8L3T8s6-1" vertex="1">
          <mxGeometry x="160" y="480" width="140" height="20" as="geometry" />
        </mxCell>
        <mxCell id="VPX1oHksv8zwOihtb0R_-45" value="GET" style="text;html=1;strokeColor=none;fillColor=none;align=left;verticalAlign=middle;whiteSpace=wrap;rounded=0;dashed=1;fontSize=12;fontFamily=Courier New;" parent="uyxOO_V6k_ypG8L3T8s6-1" vertex="1">
          <mxGeometry x="120" y="500" width="40" height="20" as="geometry" />
        </mxCell>
        <mxCell id="VPX1oHksv8zwOihtb0R_-46" value="Logins/{id}" style="text;html=1;strokeColor=none;fillColor=none;align=left;verticalAlign=middle;whiteSpace=wrap;rounded=0;dashed=1;fontSize=10;fontFamily=Courier New;" parent="uyxOO_V6k_ypG8L3T8s6-1" vertex="1">
          <mxGeometry x="160" y="500" width="140" height="20" as="geometry" />
        </mxCell>
        <mxCell id="VPX1oHksv8zwOihtb0R_-47" value="GET" style="text;html=1;strokeColor=none;fillColor=none;align=left;verticalAlign=middle;whiteSpace=wrap;rounded=0;dashed=1;fontSize=12;fontFamily=Courier New;" parent="uyxOO_V6k_ypG8L3T8s6-1" vertex="1">
          <mxGeometry x="120" y="440" width="40" height="20" as="geometry" />
        </mxCell>
        <mxCell id="VPX1oHksv8zwOihtb0R_-48" value="Principals" style="text;html=1;strokeColor=none;fillColor=none;align=left;verticalAlign=middle;whiteSpace=wrap;rounded=0;dashed=1;fontSize=10;fontFamily=Courier New;" parent="uyxOO_V6k_ypG8L3T8s6-1" vertex="1">
          <mxGeometry x="160" y="440" width="140" height="20" as="geometry" />
        </mxCell>
        <mxCell id="VPX1oHksv8zwOihtb0R_-49" value="GET" style="text;html=1;strokeColor=none;fillColor=none;align=left;verticalAlign=middle;whiteSpace=wrap;rounded=0;dashed=1;fontSize=12;fontFamily=Courier New;" parent="uyxOO_V6k_ypG8L3T8s6-1" vertex="1">
          <mxGeometry x="120" y="460" width="40" height="20" as="geometry" />
        </mxCell>
        <mxCell id="VPX1oHksv8zwOihtb0R_-50" value="Principals/{id}" style="text;html=1;strokeColor=none;fillColor=none;align=left;verticalAlign=middle;whiteSpace=wrap;rounded=0;dashed=1;fontSize=10;fontFamily=Courier New;" parent="uyxOO_V6k_ypG8L3T8s6-1" vertex="1">
          <mxGeometry x="160" y="460" width="140" height="20" as="geometry" />
        </mxCell>
        <mxCell id="VPX1oHksv8zwOihtb0R_-51" value="GET" style="text;html=1;strokeColor=none;fillColor=none;align=left;verticalAlign=middle;whiteSpace=wrap;rounded=0;dashed=1;fontSize=12;fontFamily=Courier New;" parent="uyxOO_V6k_ypG8L3T8s6-1" vertex="1">
          <mxGeometry x="120" y="680" width="40" height="20" as="geometry" />
        </mxCell>
        <mxCell id="VPX1oHksv8zwOihtb0R_-52" value="Countries" style="text;html=1;strokeColor=none;fillColor=none;align=left;verticalAlign=middle;whiteSpace=wrap;rounded=0;dashed=1;fontSize=10;fontFamily=Courier New;" parent="uyxOO_V6k_ypG8L3T8s6-1" vertex="1">
          <mxGeometry x="160" y="680" width="140" height="20" as="geometry" />
        </mxCell>
        <mxCell id="VPX1oHksv8zwOihtb0R_-53" value="GET" style="text;html=1;strokeColor=none;fillColor=none;align=left;verticalAlign=middle;whiteSpace=wrap;rounded=0;dashed=1;fontSize=12;fontFamily=Courier New;" parent="uyxOO_V6k_ypG8L3T8s6-1" vertex="1">
          <mxGeometry x="120" y="700" width="40" height="20" as="geometry" />
        </mxCell>
        <mxCell id="VPX1oHksv8zwOihtb0R_-54" value="Countries/{id}" style="text;html=1;strokeColor=none;fillColor=none;align=left;verticalAlign=middle;whiteSpace=wrap;rounded=0;dashed=1;fontSize=10;fontFamily=Courier New;" parent="uyxOO_V6k_ypG8L3T8s6-1" vertex="1">
          <mxGeometry x="160" y="700" width="140" height="20" as="geometry" />
        </mxCell>
        <mxCell id="VPX1oHksv8zwOihtb0R_-55" value="GET" style="text;html=1;strokeColor=none;fillColor=none;align=left;verticalAlign=middle;whiteSpace=wrap;rounded=0;dashed=1;fontSize=12;fontFamily=Courier New;" parent="uyxOO_V6k_ypG8L3T8s6-1" vertex="1">
          <mxGeometry x="120" y="720" width="40" height="20" as="geometry" />
        </mxCell>
        <mxCell id="VPX1oHksv8zwOihtb0R_-56" value="Roles" style="text;html=1;strokeColor=none;fillColor=none;align=left;verticalAlign=middle;whiteSpace=wrap;rounded=0;dashed=1;fontSize=10;fontFamily=Courier New;" parent="uyxOO_V6k_ypG8L3T8s6-1" vertex="1">
          <mxGeometry x="160" y="720" width="140" height="20" as="geometry" />
        </mxCell>
        <mxCell id="VPX1oHksv8zwOihtb0R_-57" value="GET" style="text;html=1;strokeColor=none;fillColor=none;align=left;verticalAlign=middle;whiteSpace=wrap;rounded=0;dashed=1;fontSize=12;fontFamily=Courier New;" parent="uyxOO_V6k_ypG8L3T8s6-1" vertex="1">
          <mxGeometry x="120" y="740" width="40" height="20" as="geometry" />
        </mxCell>
        <mxCell id="VPX1oHksv8zwOihtb0R_-58" value="Roles/{id}" style="text;html=1;strokeColor=none;fillColor=none;align=left;verticalAlign=middle;whiteSpace=wrap;rounded=0;dashed=1;fontSize=10;fontFamily=Courier New;" parent="uyxOO_V6k_ypG8L3T8s6-1" vertex="1">
          <mxGeometry x="160" y="740" width="140" height="20" as="geometry" />
        </mxCell>
        <mxCell id="VPX1oHksv8zwOihtb0R_-59" value="GET" style="text;html=1;strokeColor=none;fillColor=none;align=left;verticalAlign=middle;whiteSpace=wrap;rounded=0;dashed=1;fontSize=12;fontFamily=Courier New;" parent="uyxOO_V6k_ypG8L3T8s6-1" vertex="1">
          <mxGeometry x="120" y="760" width="40" height="20" as="geometry" />
        </mxCell>
        <mxCell id="VPX1oHksv8zwOihtb0R_-60" value="Obligations" style="text;html=1;strokeColor=none;fillColor=none;align=left;verticalAlign=middle;whiteSpace=wrap;rounded=0;dashed=1;fontSize=10;fontFamily=Courier New;" parent="uyxOO_V6k_ypG8L3T8s6-1" vertex="1">
          <mxGeometry x="160" y="760" width="140" height="20" as="geometry" />
        </mxCell>
        <mxCell id="VPX1oHksv8zwOihtb0R_-61" value="GET" style="text;html=1;strokeColor=none;fillColor=none;align=left;verticalAlign=middle;whiteSpace=wrap;rounded=0;dashed=1;fontSize=12;fontFamily=Courier New;" parent="uyxOO_V6k_ypG8L3T8s6-1" vertex="1">
          <mxGeometry x="120" y="780" width="40" height="20" as="geometry" />
        </mxCell>
        <mxCell id="VPX1oHksv8zwOihtb0R_-62" value="Obligations/{id}" style="text;html=1;strokeColor=none;fillColor=none;align=left;verticalAlign=middle;whiteSpace=wrap;rounded=0;dashed=1;fontSize=10;fontFamily=Courier New;" parent="uyxOO_V6k_ypG8L3T8s6-1" vertex="1">
          <mxGeometry x="160" y="780" width="140" height="20" as="geometry" />
        </mxCell>
        <mxCell id="VPX1oHksv8zwOihtb0R_-63" value="GET" style="text;html=1;strokeColor=none;fillColor=none;align=left;verticalAlign=middle;whiteSpace=wrap;rounded=0;dashed=1;fontSize=12;fontFamily=Courier New;" parent="uyxOO_V6k_ypG8L3T8s6-1" vertex="1">
          <mxGeometry x="120" y="800" width="40" height="20" as="geometry" />
        </mxCell>
        <mxCell id="VPX1oHksv8zwOihtb0R_-64" value="Permissions" style="text;html=1;strokeColor=none;fillColor=none;align=left;verticalAlign=middle;whiteSpace=wrap;rounded=0;dashed=1;fontSize=10;fontFamily=Courier New;" parent="uyxOO_V6k_ypG8L3T8s6-1" vertex="1">
          <mxGeometry x="160" y="800" width="140" height="20" as="geometry" />
        </mxCell>
        <mxCell id="VPX1oHksv8zwOihtb0R_-65" value="GET" style="text;html=1;strokeColor=none;fillColor=none;align=left;verticalAlign=middle;whiteSpace=wrap;rounded=0;dashed=1;fontSize=12;fontFamily=Courier New;" parent="uyxOO_V6k_ypG8L3T8s6-1" vertex="1">
          <mxGeometry x="120" y="820" width="40" height="20" as="geometry" />
        </mxCell>
        <mxCell id="VPX1oHksv8zwOihtb0R_-66" value="Permissions/{id}" style="text;html=1;strokeColor=none;fillColor=none;align=left;verticalAlign=middle;whiteSpace=wrap;rounded=0;dashed=1;fontSize=10;fontFamily=Courier New;" parent="uyxOO_V6k_ypG8L3T8s6-1" vertex="1">
          <mxGeometry x="160" y="820" width="140" height="20" as="geometry" />
        </mxCell>
        <mxCell id="VPX1oHksv8zwOihtb0R_-68" value="&lt;font style=&quot;font-size: 10px&quot;&gt;SearchItems/DiagnosticsLog&lt;/font&gt;" style="text;html=1;strokeColor=none;fillColor=none;align=left;verticalAlign=middle;whiteSpace=wrap;rounded=0;dashed=1;fontSize=10;fontFamily=Courier New;" parent="uyxOO_V6k_ypG8L3T8s6-1" vertex="1">
          <mxGeometry x="320" y="280" width="160" height="20" as="geometry" />
        </mxCell>
        <mxCell id="VPX1oHksv8zwOihtb0R_-69" value="&lt;font style=&quot;font-size: 10px&quot;&gt;SearchItems/ErrorRecord&lt;/font&gt;" style="text;html=1;strokeColor=none;fillColor=none;align=left;verticalAlign=middle;whiteSpace=wrap;rounded=0;dashed=1;fontSize=10;fontFamily=Courier New;" parent="uyxOO_V6k_ypG8L3T8s6-1" vertex="1">
          <mxGeometry x="320" y="320" width="160" height="20" as="geometry" />
        </mxCell>
        <mxCell id="VPX1oHksv8zwOihtb0R_-70" value="&lt;font style=&quot;font-size: 10px&quot;&gt;SearchItems/Session&lt;/font&gt;" style="text;html=1;strokeColor=none;fillColor=none;align=left;verticalAlign=middle;whiteSpace=wrap;rounded=0;dashed=1;fontSize=10;fontFamily=Courier New;" parent="uyxOO_V6k_ypG8L3T8s6-1" vertex="1">
          <mxGeometry x="320" y="360" width="160" height="20" as="geometry" />
        </mxCell>
        <mxCell id="VPX1oHksv8zwOihtb0R_-71" value="&lt;font style=&quot;font-size: 10px&quot;&gt;SearchItems/Principal&lt;/font&gt;" style="text;html=1;strokeColor=none;fillColor=none;align=left;verticalAlign=middle;whiteSpace=wrap;rounded=0;dashed=1;fontSize=10;fontFamily=Courier New;" parent="uyxOO_V6k_ypG8L3T8s6-1" vertex="1">
          <mxGeometry x="320" y="440" width="160" height="20" as="geometry" />
        </mxCell>
        <mxCell id="VPX1oHksv8zwOihtb0R_-72" value="&lt;font style=&quot;font-size: 10px&quot;&gt;SearchItems/SessionLog&lt;/font&gt;" style="text;html=1;strokeColor=none;fillColor=none;align=left;verticalAlign=middle;whiteSpace=wrap;rounded=0;dashed=1;fontSize=10;fontFamily=Courier New;" parent="uyxOO_V6k_ypG8L3T8s6-1" vertex="1">
          <mxGeometry x="320" y="400" width="160" height="20" as="geometry" />
        </mxCell>
        <mxCell id="VPX1oHksv8zwOihtb0R_-73" value="&lt;font style=&quot;font-size: 10px&quot;&gt;SearchItems/Login&lt;/font&gt;" style="text;html=1;strokeColor=none;fillColor=none;align=left;verticalAlign=middle;whiteSpace=wrap;rounded=0;dashed=1;fontSize=10;fontFamily=Courier New;" parent="uyxOO_V6k_ypG8L3T8s6-1" vertex="1">
          <mxGeometry x="320" y="480" width="160" height="20" as="geometry" />
        </mxCell>
        <mxCell id="VPX1oHksv8zwOihtb0R_-74" value="&lt;font style=&quot;font-size: 10px&quot;&gt;SearchItems/Tenant&lt;/font&gt;" style="text;html=1;strokeColor=none;fillColor=none;align=left;verticalAlign=middle;whiteSpace=wrap;rounded=0;dashed=1;fontSize=10;fontFamily=Courier New;" parent="uyxOO_V6k_ypG8L3T8s6-1" vertex="1">
          <mxGeometry x="320" y="520" width="160" height="20" as="geometry" />
        </mxCell>
        <mxCell id="VPX1oHksv8zwOihtb0R_-75" value="&lt;font style=&quot;font-size: 10px&quot;&gt;SearchItems/Group&lt;/font&gt;" style="text;html=1;strokeColor=none;fillColor=none;align=left;verticalAlign=middle;whiteSpace=wrap;rounded=0;dashed=1;fontSize=10;fontFamily=Courier New;" parent="uyxOO_V6k_ypG8L3T8s6-1" vertex="1">
          <mxGeometry x="320" y="600" width="160" height="20" as="geometry" />
        </mxCell>
        <mxCell id="VPX1oHksv8zwOihtb0R_-76" value="&lt;font style=&quot;font-size: 10px&quot;&gt;SearchItems/Organisation&lt;/font&gt;" style="text;html=1;strokeColor=none;fillColor=none;align=left;verticalAlign=middle;whiteSpace=wrap;rounded=0;dashed=1;fontSize=10;fontFamily=Courier New;" parent="uyxOO_V6k_ypG8L3T8s6-1" vertex="1">
          <mxGeometry x="320" y="560" width="160" height="20" as="geometry" />
        </mxCell>
        <mxCell id="VPX1oHksv8zwOihtb0R_-77" value="&lt;font style=&quot;font-size: 10px&quot;&gt;SearchItems/Member&lt;/font&gt;" style="text;html=1;strokeColor=none;fillColor=none;align=left;verticalAlign=middle;whiteSpace=wrap;rounded=0;dashed=1;fontSize=10;fontFamily=Courier New;" parent="uyxOO_V6k_ypG8L3T8s6-1" vertex="1">
          <mxGeometry x="320" y="640" width="160" height="20" as="geometry" />
        </mxCell>
        <mxCell id="VPX1oHksv8zwOihtb0R_-78" value="&lt;font style=&quot;font-size: 10px&quot;&gt;SearchItems/Country&lt;/font&gt;" style="text;html=1;strokeColor=none;fillColor=none;align=left;verticalAlign=middle;whiteSpace=wrap;rounded=0;dashed=1;fontSize=10;fontFamily=Courier New;" parent="uyxOO_V6k_ypG8L3T8s6-1" vertex="1">
          <mxGeometry x="320" y="680" width="160" height="20" as="geometry" />
        </mxCell>
        <mxCell id="VPX1oHksv8zwOihtb0R_-79" value="&lt;font style=&quot;font-size: 10px&quot;&gt;SearchItems/Role&lt;/font&gt;" style="text;html=1;strokeColor=none;fillColor=none;align=left;verticalAlign=middle;whiteSpace=wrap;rounded=0;dashed=1;fontSize=10;fontFamily=Courier New;" parent="uyxOO_V6k_ypG8L3T8s6-1" vertex="1">
          <mxGeometry x="320" y="720" width="160" height="20" as="geometry" />
        </mxCell>
        <mxCell id="VPX1oHksv8zwOihtb0R_-80" value="&lt;font style=&quot;font-size: 10px&quot;&gt;SearchItems/Obligation&lt;/font&gt;" style="text;html=1;strokeColor=none;fillColor=none;align=left;verticalAlign=middle;whiteSpace=wrap;rounded=0;dashed=1;fontSize=10;fontFamily=Courier New;" parent="uyxOO_V6k_ypG8L3T8s6-1" vertex="1">
          <mxGeometry x="320" y="760" width="160" height="20" as="geometry" />
        </mxCell>
        <mxCell id="VPX1oHksv8zwOihtb0R_-81" value="&lt;font style=&quot;font-size: 10px&quot;&gt;SearchItems/Permission&lt;/font&gt;" style="text;html=1;strokeColor=none;fillColor=none;align=left;verticalAlign=middle;whiteSpace=wrap;rounded=0;dashed=1;fontSize=10;fontFamily=Courier New;" parent="uyxOO_V6k_ypG8L3T8s6-1" vertex="1">
          <mxGeometry x="320" y="800" width="160" height="20" as="geometry" />
        </mxCell>
        <mxCell id="VPX1oHksv8zwOihtb0R_-82" value="GET" style="text;html=1;strokeColor=none;fillColor=none;align=left;verticalAlign=middle;whiteSpace=wrap;rounded=0;dashed=1;fontSize=12;fontFamily=Courier New;" parent="uyxOO_V6k_ypG8L3T8s6-1" vertex="1">
          <mxGeometry x="120" y="840" width="40" height="20" as="geometry" />
        </mxCell>
        <mxCell id="VPX1oHksv8zwOihtb0R_-83" value="Notifications" style="text;html=1;strokeColor=none;fillColor=none;align=left;verticalAlign=middle;whiteSpace=wrap;rounded=0;dashed=1;fontSize=10;fontFamily=Courier New;" parent="uyxOO_V6k_ypG8L3T8s6-1" vertex="1">
          <mxGeometry x="160" y="840" width="140" height="20" as="geometry" />
        </mxCell>
        <mxCell id="VPX1oHksv8zwOihtb0R_-84" value="GET" style="text;html=1;strokeColor=none;fillColor=none;align=left;verticalAlign=middle;whiteSpace=wrap;rounded=0;dashed=1;fontSize=12;fontFamily=Courier New;" parent="uyxOO_V6k_ypG8L3T8s6-1" vertex="1">
          <mxGeometry x="120" y="860" width="40" height="20" as="geometry" />
        </mxCell>
        <mxCell id="VPX1oHksv8zwOihtb0R_-85" value="Notifications/{id}" style="text;html=1;strokeColor=none;fillColor=none;align=left;verticalAlign=middle;whiteSpace=wrap;rounded=0;dashed=1;fontSize=10;fontFamily=Courier New;" parent="uyxOO_V6k_ypG8L3T8s6-1" vertex="1">
          <mxGeometry x="160" y="860" width="140" height="20" as="geometry" />
        </mxCell>
        <mxCell id="VPX1oHksv8zwOihtb0R_-86" value="&lt;font style=&quot;font-size: 10px&quot;&gt;SearchItems/Notification&lt;/font&gt;" style="text;html=1;strokeColor=none;fillColor=none;align=left;verticalAlign=middle;whiteSpace=wrap;rounded=0;dashed=1;fontSize=10;fontFamily=Courier New;" parent="uyxOO_V6k_ypG8L3T8s6-1" vertex="1">
          <mxGeometry x="320" y="840" width="160" height="20" as="geometry" />
        </mxCell>
        <mxCell id="uyxOO_V6k_ypG8L3T8s6-22" value="Context/Legend" parent="uyxOO_V6k_ypG8L3T8s6-0" />
        <mxCell id="uyxOO_V6k_ypG8L3T8s6-40" value="Title/Diagram" parent="uyxOO_V6k_ypG8L3T8s6-0" />
        <mxCell id="uyxOO_V6k_ypG8L3T8s6-41" value="&lt;font style=&quot;font-size: 12px&quot;&gt;Diagram: Service Client - Development - Interface - Views - Browser Navigation Paths&lt;/font&gt;" style="text;strokeColor=none;fillColor=none;html=1;fontSize=12;fontStyle=2;verticalAlign=middle;align=left;shadow=0;glass=0;comic=0;opacity=30;fontColor=#808080;" parent="uyxOO_V6k_ypG8L3T8s6-40" vertex="1">
          <mxGeometry x="120" y="900" width="520" height="20" as="geometry" />
        </mxCell>
        <mxCell id="uyxOO_V6k_ypG8L3T8s6-42" value="Title/Page" parent="uyxOO_V6k_ypG8L3T8s6-0" />
        <mxCell id="uyxOO_V6k_ypG8L3T8s6-43" value="" style="group;fontSize=12;" parent="uyxOO_V6k_ypG8L3T8s6-42" vertex="1" connectable="0">
          <mxGeometry x="120" y="120" width="560" height="45" as="geometry" />
        </mxCell>
        <mxCell id="uyxOO_V6k_ypG8L3T8s6-44" value="&lt;font style=&quot;font-size: 12px&quot;&gt;Service Client - Development - Interface - Views - Browser Navigation Paths&lt;/font&gt;" style="text;strokeColor=none;fillColor=none;html=1;fontSize=12;fontStyle=1;verticalAlign=middle;align=left;shadow=0;glass=0;comic=0;opacity=30;fontColor=#808080;" parent="uyxOO_V6k_ypG8L3T8s6-43" vertex="1">
          <mxGeometry y="20" width="560" height="20" as="geometry" />
        </mxCell>
        <mxCell id="uyxOO_V6k_ypG8L3T8s6-45" value="" style="line;strokeWidth=2;html=1;shadow=0;glass=0;comic=0;fillColor=none;fontSize=12;fontColor=#CCCCCC;labelBackgroundColor=none;strokeColor=#CCCCCC;" parent="uyxOO_V6k_ypG8L3T8s6-43" vertex="1">
          <mxGeometry y="35" width="560" height="10" as="geometry" />
        </mxCell>
        <mxCell id="uyxOO_V6k_ypG8L3T8s6-46" value="About" parent="uyxOO_V6k_ypG8L3T8s6-0" />
      </root>
    </mxGraphModel>
  </diagram>
  <diagram name="SERVICE CLIENT INTERFACE" id="RacnrqryF_HH5u8QyLYK">
    <mxGraphModel dx="1130" dy="406" grid="1" gridSize="10" guides="1" tooltips="1" connect="1" arrows="1" fold="1" page="1" pageScale="1" pageWidth="827" pageHeight="1169" math="0" shadow="0">
      <root>
        <mxCell id="pKOrR4vNmKP5spNzjKmT-0" />
        <mxCell id="pKOrR4vNmKP5spNzjKmT-1" value="Title" parent="pKOrR4vNmKP5spNzjKmT-0" />
        <mxCell id="pKOrR4vNmKP5spNzjKmT-2" value="Service Client &lt;br&gt;View" style="text;html=1;strokeColor=none;fillColor=none;align=center;verticalAlign=middle;whiteSpace=wrap;rounded=0;fontSize=48;opacity=30;" parent="pKOrR4vNmKP5spNzjKmT-1" vertex="1">
          <mxGeometry x="160" y="280" width="480" height="120" as="geometry" />
        </mxCell>
        <mxCell id="pKOrR4vNmKP5spNzjKmT-3" value="About" parent="pKOrR4vNmKP5spNzjKmT-0" />
        <UserObject label="" tooltip="ABOUT&#xa;&#xa;Mainstream development has focused on various aspects over the previous years:&#xa;&#xa;&#xa;&#xa;- Code Quality&#xa;&#xa;- Test Coverage&#xa;&#xa;- Deverlopment Approach&#xa;&#xa;- Security&#xa;&#xa;&#xa;&#xa;The focus is now on Privacy.&#xa;&#xa;" id="pKOrR4vNmKP5spNzjKmT-4">
          <mxCell style="shape=image;html=1;verticalAlign=top;verticalLabelPosition=bottom;labelBackgroundColor=#ffffff;imageAspect=0;aspect=fixed;image=https://cdn1.iconfinder.com/data/icons/hawcons/32/699014-icon-28-information-128.png;shadow=0;dashed=0;fontFamily=Helvetica;fontSize=12;fontColor=#000000;align=center;strokeColor=#000000;fillColor=#505050;dashPattern=1 1;" parent="pKOrR4vNmKP5spNzjKmT-3" vertex="1">
            <mxGeometry x="620" y="380" width="20" height="20" as="geometry" />
          </mxCell>
        </UserObject>
      </root>
    </mxGraphModel>
  </diagram>
  <diagram name="Service Client/Channel/Device Sizes" id="RmJcAxbanUjssBDh3eYm">
    <mxGraphModel dx="1130" dy="406" grid="1" gridSize="10" guides="1" tooltips="1" connect="1" arrows="1" fold="1" page="1" pageScale="1" pageWidth="827" pageHeight="1169" math="0" shadow="0">
      <root>
        <mxCell id="RGKN3ZYOkmtq3_5qExco-0" />
        <mxCell id="RGKN3ZYOkmtq3_5qExco-141" value="L" parent="RGKN3ZYOkmtq3_5qExco-0" />
        <mxCell id="RGKN3ZYOkmtq3_5qExco-134" value="" style="shape=flexArrow;endArrow=classic;html=1;fontSize=12;fontColor=#000000;fillColor=#dae8fc;strokeColor=none;" parent="RGKN3ZYOkmtq3_5qExco-141" edge="1">
          <mxGeometry width="50" height="50" relative="1" as="geometry">
            <mxPoint x="190" y="420" as="sourcePoint" />
            <mxPoint x="190" y="470" as="targetPoint" />
          </mxGeometry>
        </mxCell>
        <mxCell id="RGKN3ZYOkmtq3_5qExco-135" value="" style="shape=flexArrow;endArrow=classic;html=1;fontSize=12;fontColor=#000000;fillColor=#dae8fc;strokeColor=none;" parent="RGKN3ZYOkmtq3_5qExco-141" edge="1">
          <mxGeometry width="50" height="50" relative="1" as="geometry">
            <mxPoint x="290" y="420" as="sourcePoint" />
            <mxPoint x="290" y="470" as="targetPoint" />
          </mxGeometry>
        </mxCell>
        <mxCell id="RGKN3ZYOkmtq3_5qExco-136" value="" style="shape=flexArrow;endArrow=classic;html=1;fontSize=12;fontColor=#000000;fillColor=#dae8fc;strokeColor=none;" parent="RGKN3ZYOkmtq3_5qExco-141" edge="1">
          <mxGeometry width="50" height="50" relative="1" as="geometry">
            <mxPoint x="400" y="420" as="sourcePoint" />
            <mxPoint x="400" y="470" as="targetPoint" />
          </mxGeometry>
        </mxCell>
        <mxCell id="RGKN3ZYOkmtq3_5qExco-137" value="" style="shape=flexArrow;endArrow=classic;html=1;fontSize=12;fontColor=#000000;fillColor=#dae8fc;strokeColor=none;" parent="RGKN3ZYOkmtq3_5qExco-141" edge="1">
          <mxGeometry width="50" height="50" relative="1" as="geometry">
            <mxPoint x="480" y="420" as="sourcePoint" />
            <mxPoint x="480" y="470" as="targetPoint" />
          </mxGeometry>
        </mxCell>
        <mxCell id="RGKN3ZYOkmtq3_5qExco-138" value="" style="shape=flexArrow;endArrow=classic;html=1;fontSize=12;fontColor=#000000;fillColor=#dae8fc;strokeColor=none;" parent="RGKN3ZYOkmtq3_5qExco-141" edge="1">
          <mxGeometry width="50" height="50" relative="1" as="geometry">
            <mxPoint x="540" y="420" as="sourcePoint" />
            <mxPoint x="540" y="470" as="targetPoint" />
          </mxGeometry>
        </mxCell>
        <mxCell id="RGKN3ZYOkmtq3_5qExco-139" value="" style="shape=flexArrow;endArrow=classic;html=1;fontSize=12;fontColor=#000000;fillColor=#dae8fc;strokeColor=none;" parent="RGKN3ZYOkmtq3_5qExco-141" edge="1">
          <mxGeometry width="50" height="50" relative="1" as="geometry">
            <mxPoint x="600" y="420" as="sourcePoint" />
            <mxPoint x="600" y="470" as="targetPoint" />
          </mxGeometry>
        </mxCell>
        <mxCell id="RGKN3ZYOkmtq3_5qExco-140" value="" style="shape=flexArrow;endArrow=classic;html=1;fontSize=12;fontColor=#000000;fillColor=#dae8fc;strokeColor=none;" parent="RGKN3ZYOkmtq3_5qExco-141" edge="1">
          <mxGeometry width="50" height="50" relative="1" as="geometry">
            <mxPoint x="660" y="420" as="sourcePoint" />
            <mxPoint x="660" y="470" as="targetPoint" />
          </mxGeometry>
        </mxCell>
        <mxCell id="RGKN3ZYOkmtq3_5qExco-116" value="Trend" style="" parent="RGKN3ZYOkmtq3_5qExco-0" />
        <mxCell id="RGKN3ZYOkmtq3_5qExco-118" value="Size decreasing&lt;br&gt;over time" style="text;html=1;strokeColor=none;fillColor=none;align=center;verticalAlign=middle;whiteSpace=wrap;rounded=0;dashed=1;labelBackgroundColor=none;fontSize=12;fontColor=#000000;" parent="RGKN3ZYOkmtq3_5qExco-116" vertex="1">
          <mxGeometry x="190" y="200" width="40" height="20" as="geometry" />
        </mxCell>
        <mxCell id="RGKN3ZYOkmtq3_5qExco-119" value="" style="shape=image;html=1;verticalAlign=top;verticalLabelPosition=bottom;labelBackgroundColor=#ffffff;imageAspect=0;aspect=fixed;image=https://cdn3.iconfinder.com/data/icons/google-material-design-icons/48/ic_sim_card_48px-128.png;dashed=1;strokeColor=#CC0000;fontSize=12;fontColor=#000000;align=left;" parent="RGKN3ZYOkmtq3_5qExco-116" vertex="1">
          <mxGeometry x="160" y="480" width="60" height="60" as="geometry" />
        </mxCell>
        <mxCell id="RGKN3ZYOkmtq3_5qExco-120" value="" style="shape=image;html=1;verticalAlign=top;verticalLabelPosition=bottom;labelBackgroundColor=#ffffff;imageAspect=0;aspect=fixed;image=https://cdn2.iconfinder.com/data/icons/eico1/My_computer.png;dashed=1;strokeColor=#CC0000;fontSize=12;fontColor=#000000;align=left;" parent="RGKN3ZYOkmtq3_5qExco-116" vertex="1">
          <mxGeometry x="250" y="480" width="70" height="70" as="geometry" />
        </mxCell>
        <mxCell id="RGKN3ZYOkmtq3_5qExco-122" value="" style="shape=image;html=1;verticalAlign=top;verticalLabelPosition=bottom;labelBackgroundColor=#ffffff;imageAspect=0;aspect=fixed;image=https://cdn3.iconfinder.com/data/icons/pleasant/My-Computer.png;dashed=1;strokeColor=#CC0000;fontSize=12;fontColor=#000000;align=left;" parent="RGKN3ZYOkmtq3_5qExco-116" vertex="1">
          <mxGeometry x="370" y="485" width="50" height="50" as="geometry" />
        </mxCell>
        <mxCell id="RGKN3ZYOkmtq3_5qExco-123" value="" style="aspect=fixed;html=1;points=[];align=center;image;fontSize=12;image=img/lib/mscae/Mobile_Engagement.svg;dashed=1;labelBackgroundColor=none;strokeColor=#CC0000;" parent="RGKN3ZYOkmtq3_5qExco-116" vertex="1">
          <mxGeometry x="470" y="490" width="34" height="50" as="geometry" />
        </mxCell>
        <mxCell id="RGKN3ZYOkmtq3_5qExco-124" value="" style="shape=image;html=1;verticalAlign=top;verticalLabelPosition=bottom;labelBackgroundColor=#ffffff;imageAspect=0;aspect=fixed;image=https://cdn1.iconfinder.com/data/icons/gradak-music/32/music-30-128.png;dashed=1;strokeColor=#CC0000;fontSize=12;fontColor=#000000;align=left;" parent="RGKN3ZYOkmtq3_5qExco-116" vertex="1">
          <mxGeometry x="550" y="480" width="50" height="50" as="geometry" />
        </mxCell>
        <mxCell id="RGKN3ZYOkmtq3_5qExco-125" value="" style="shape=image;html=1;verticalAlign=top;verticalLabelPosition=bottom;labelBackgroundColor=#ffffff;imageAspect=0;aspect=fixed;image=https://cdn0.iconfinder.com/data/icons/social-glyph/30/soundcloud-120.png;dashed=1;strokeColor=#CC0000;fontSize=12;fontColor=#000000;align=left;" parent="RGKN3ZYOkmtq3_5qExco-116" vertex="1">
          <mxGeometry x="630" y="485" width="45" height="45" as="geometry" />
        </mxCell>
        <mxCell id="RGKN3ZYOkmtq3_5qExco-132" value="&lt;b&gt;Device&lt;/b&gt;" style="rounded=0;whiteSpace=wrap;html=1;labelBackgroundColor=none;fontSize=12;fontColor=#333333;align=center;fillColor=#f5f5f5;fontStyle=0;strokeColor=none;rotation=-90;" parent="RGKN3ZYOkmtq3_5qExco-116" vertex="1">
          <mxGeometry x="80" y="320" width="100" height="20" as="geometry" />
        </mxCell>
        <mxCell id="RGKN3ZYOkmtq3_5qExco-133" value="&lt;b&gt;Output&lt;/b&gt;" style="rounded=0;whiteSpace=wrap;html=1;labelBackgroundColor=none;fontSize=12;fontColor=#333333;align=center;fillColor=#f5f5f5;fontStyle=0;strokeColor=none;rotation=-90;" parent="RGKN3ZYOkmtq3_5qExco-116" vertex="1">
          <mxGeometry x="90" y="510" width="80" height="20" as="geometry" />
        </mxCell>
        <mxCell id="RGKN3ZYOkmtq3_5qExco-117" value="" style="endArrow=classic;dashed=1;html=1;strokeColor=#004C99;fontSize=12;fontColor=#000000;endFill=1;strokeWidth=3;" parent="RGKN3ZYOkmtq3_5qExco-116" edge="1">
          <mxGeometry width="50" height="50" relative="1" as="geometry">
            <mxPoint x="160" y="200" as="sourcePoint" />
            <mxPoint x="680" y="380" as="targetPoint" />
            <Array as="points">
              <mxPoint x="200" y="260" />
              <mxPoint x="290" y="320" />
              <mxPoint x="410" y="360" />
              <mxPoint x="560" y="380" />
            </Array>
          </mxGeometry>
        </mxCell>
        <mxCell id="RGKN3ZYOkmtq3_5qExco-1" value="Diagram" parent="RGKN3ZYOkmtq3_5qExco-0" />
        <mxCell id="RGKN3ZYOkmtq3_5qExco-98" value="" style="verticalLabelPosition=bottom;aspect=fixed;html=1;verticalAlign=top;strokeColor=none;align=center;outlineConnect=0;shape=mxgraph.citrix.desktop;dashed=1;labelBackgroundColor=none;fontSize=24;fontColor=#666666;" parent="RGKN3ZYOkmtq3_5qExco-1" vertex="1">
          <mxGeometry x="260" y="300" width="72.65" height="80" as="geometry" />
        </mxCell>
        <mxCell id="RGKN3ZYOkmtq3_5qExco-99" value="" style="verticalLabelPosition=bottom;aspect=fixed;html=1;verticalAlign=top;strokeColor=none;align=center;outlineConnect=0;shape=mxgraph.citrix.laptop_2;dashed=1;labelBackgroundColor=none;fontSize=24;fontColor=#666666;" parent="RGKN3ZYOkmtq3_5qExco-1" vertex="1">
          <mxGeometry x="356" y="310" width="80.46" height="60" as="geometry" />
        </mxCell>
        <mxCell id="RGKN3ZYOkmtq3_5qExco-100" value="" style="verticalLabelPosition=bottom;html=1;verticalAlign=top;strokeWidth=1;align=center;outlineConnect=0;dashed=0;outlineConnect=0;shape=mxgraph.aws3d.mobile_worker;aspect=fixed;strokeColor=none;fillColor=#777777;labelBackgroundColor=none;fontSize=24;fontColor=#666666;" parent="RGKN3ZYOkmtq3_5qExco-1" vertex="1">
          <mxGeometry x="470" y="310" width="24" height="60" as="geometry" />
        </mxCell>
        <mxCell id="RGKN3ZYOkmtq3_5qExco-101" value="" style="aspect=fixed;perimeter=ellipsePerimeter;html=1;align=center;shadow=0;dashed=0;spacingTop=3;image;image=img/lib/active_directory/mainframe.svg;labelBackgroundColor=none;strokeColor=#CC0000;fontSize=24;fontColor=#666666;" parent="RGKN3ZYOkmtq3_5qExco-1" vertex="1">
          <mxGeometry x="160" y="300" width="84.21" height="80" as="geometry" />
        </mxCell>
        <mxCell id="RGKN3ZYOkmtq3_5qExco-102" value="" style="shape=image;html=1;verticalAlign=top;verticalLabelPosition=bottom;labelBackgroundColor=#ffffff;imageAspect=0;aspect=fixed;image=https://cdn2.iconfinder.com/data/icons/smart-watch-outline-filled-1/32/Smart_Watch__Earphone_Music-128.png;dashed=1;strokeColor=#CC0000;fontSize=24;fontColor=#666666;align=left;" parent="RGKN3ZYOkmtq3_5qExco-1" vertex="1">
          <mxGeometry x="570" y="320" width="50" height="50" as="geometry" />
        </mxCell>
        <mxCell id="RGKN3ZYOkmtq3_5qExco-103" value="" style="shape=image;html=1;verticalAlign=top;verticalLabelPosition=bottom;labelBackgroundColor=#ffffff;imageAspect=0;aspect=fixed;image=https://cdn4.iconfinder.com/data/icons/music-103/1000/music-06-128.png;dashed=1;strokeColor=#CC0000;fontSize=24;fontColor=#666666;align=left;" parent="RGKN3ZYOkmtq3_5qExco-1" vertex="1">
          <mxGeometry x="640" y="325" width="40" height="40" as="geometry" />
        </mxCell>
        <mxCell id="RGKN3ZYOkmtq3_5qExco-105" value="" style="shape=image;html=1;verticalAlign=top;verticalLabelPosition=bottom;labelBackgroundColor=#ffffff;imageAspect=0;aspect=fixed;image=https://cdn3.iconfinder.com/data/icons/transport-icons-2/512/BT_c3behind-128.png;dashed=1;strokeColor=#CC0000;fontSize=24;fontColor=#666666;align=left;" parent="RGKN3ZYOkmtq3_5qExco-1" vertex="1">
          <mxGeometry x="520" y="340" width="50" height="50" as="geometry" />
        </mxCell>
        <mxCell id="RGKN3ZYOkmtq3_5qExco-106" value="" style="verticalLabelPosition=bottom;html=1;verticalAlign=top;strokeWidth=1;align=center;outlineConnect=0;dashed=0;outlineConnect=0;shape=mxgraph.aws3d.mobile_worker;aspect=fixed;strokeColor=none;fillColor=#777777;labelBackgroundColor=none;fontSize=24;fontColor=#666666;" parent="RGKN3ZYOkmtq3_5qExco-1" vertex="1">
          <mxGeometry x="534" y="310" width="14" height="30" as="geometry" />
        </mxCell>
        <mxCell id="RGKN3ZYOkmtq3_5qExco-108" value="Mainframe" style="text;html=1;strokeColor=none;fillColor=none;align=center;verticalAlign=middle;whiteSpace=wrap;rounded=0;dashed=1;labelBackgroundColor=none;fontSize=12;" parent="RGKN3ZYOkmtq3_5qExco-1" vertex="1">
          <mxGeometry x="180" y="380" width="40" height="20" as="geometry" />
        </mxCell>
        <mxCell id="RGKN3ZYOkmtq3_5qExco-126" value="Punch&lt;br&gt;cards" style="text;html=1;strokeColor=none;fillColor=none;align=center;verticalAlign=middle;whiteSpace=wrap;rounded=0;dashed=1;labelBackgroundColor=none;fontSize=12;" parent="RGKN3ZYOkmtq3_5qExco-1" vertex="1">
          <mxGeometry x="170" y="570" width="40" height="20" as="geometry" />
        </mxCell>
        <mxCell id="RGKN3ZYOkmtq3_5qExco-127" value="Cathod&lt;br&gt;Ray Tubes" style="text;html=1;strokeColor=none;fillColor=none;align=center;verticalAlign=middle;whiteSpace=wrap;rounded=0;dashed=1;labelBackgroundColor=none;fontSize=12;" parent="RGKN3ZYOkmtq3_5qExco-1" vertex="1">
          <mxGeometry x="260" y="570" width="40" height="20" as="geometry" />
        </mxCell>
        <mxCell id="RGKN3ZYOkmtq3_5qExco-128" value="LED flat &lt;br&gt;screens" style="text;html=1;strokeColor=none;fillColor=none;align=center;verticalAlign=middle;whiteSpace=wrap;rounded=0;dashed=1;labelBackgroundColor=none;fontSize=12;" parent="RGKN3ZYOkmtq3_5qExco-1" vertex="1">
          <mxGeometry x="380" y="570" width="40" height="20" as="geometry" />
        </mxCell>
        <mxCell id="RGKN3ZYOkmtq3_5qExco-129" value="OLED" style="text;html=1;strokeColor=none;fillColor=none;align=center;verticalAlign=middle;whiteSpace=wrap;rounded=0;dashed=1;labelBackgroundColor=none;fontSize=12;" parent="RGKN3ZYOkmtq3_5qExco-1" vertex="1">
          <mxGeometry x="470" y="570" width="40" height="20" as="geometry" />
        </mxCell>
        <mxCell id="RGKN3ZYOkmtq3_5qExco-130" value="Event Sounds" style="text;html=1;strokeColor=none;fillColor=none;align=center;verticalAlign=middle;whiteSpace=wrap;rounded=0;dashed=1;labelBackgroundColor=none;fontSize=12;" parent="RGKN3ZYOkmtq3_5qExco-1" vertex="1">
          <mxGeometry x="550" y="570" width="40" height="20" as="geometry" />
        </mxCell>
        <mxCell id="RGKN3ZYOkmtq3_5qExco-131" value="Action Sounds" style="text;html=1;strokeColor=none;fillColor=none;align=center;verticalAlign=middle;whiteSpace=wrap;rounded=0;dashed=1;labelBackgroundColor=none;fontSize=12;" parent="RGKN3ZYOkmtq3_5qExco-1" vertex="1">
          <mxGeometry x="630" y="570" width="40" height="20" as="geometry" />
        </mxCell>
        <mxCell id="RGKN3ZYOkmtq3_5qExco-110" value="Desktop&lt;br&gt;Micro compouter" style="text;html=1;strokeColor=none;fillColor=none;align=center;verticalAlign=middle;whiteSpace=wrap;rounded=0;dashed=1;labelBackgroundColor=none;fontSize=12;" parent="RGKN3ZYOkmtq3_5qExco-1" vertex="1">
          <mxGeometry x="270" y="400" width="40" height="20" as="geometry" />
        </mxCell>
        <mxCell id="RGKN3ZYOkmtq3_5qExco-111" value="Laptop&lt;br&gt;Micros&lt;br&gt;computer" style="text;html=1;strokeColor=none;fillColor=none;align=center;verticalAlign=middle;whiteSpace=wrap;rounded=0;dashed=1;labelBackgroundColor=none;fontSize=12;" parent="RGKN3ZYOkmtq3_5qExco-1" vertex="1">
          <mxGeometry x="380" y="400" width="40" height="20" as="geometry" />
        </mxCell>
        <mxCell id="RGKN3ZYOkmtq3_5qExco-112" value="Smart&lt;br&gt;Phone" style="text;html=1;strokeColor=none;fillColor=none;align=center;verticalAlign=middle;whiteSpace=wrap;rounded=0;dashed=1;labelBackgroundColor=none;fontSize=12;" parent="RGKN3ZYOkmtq3_5qExco-1" vertex="1">
          <mxGeometry x="460" y="400" width="40" height="20" as="geometry" />
        </mxCell>
        <mxCell id="RGKN3ZYOkmtq3_5qExco-113" value="Hands&lt;br&gt;free&lt;br&gt;mobile" style="text;html=1;strokeColor=none;fillColor=none;align=center;verticalAlign=middle;whiteSpace=wrap;rounded=0;dashed=1;labelBackgroundColor=none;fontSize=12;" parent="RGKN3ZYOkmtq3_5qExco-1" vertex="1">
          <mxGeometry x="520" y="400" width="40" height="20" as="geometry" />
        </mxCell>
        <mxCell id="RGKN3ZYOkmtq3_5qExco-114" value="Smart&lt;br&gt;Watch" style="text;html=1;strokeColor=none;fillColor=none;align=center;verticalAlign=middle;whiteSpace=wrap;rounded=0;dashed=1;labelBackgroundColor=none;fontSize=12;" parent="RGKN3ZYOkmtq3_5qExco-1" vertex="1">
          <mxGeometry x="580" y="400" width="40" height="20" as="geometry" />
        </mxCell>
        <mxCell id="RGKN3ZYOkmtq3_5qExco-115" value="Hands free&lt;br&gt;Assisted&lt;br&gt;Earbuds" style="text;html=1;strokeColor=none;fillColor=none;align=center;verticalAlign=middle;whiteSpace=wrap;rounded=0;dashed=1;labelBackgroundColor=none;fontSize=12;" parent="RGKN3ZYOkmtq3_5qExco-1" vertex="1">
          <mxGeometry x="640" y="400" width="40" height="20" as="geometry" />
        </mxCell>
        <mxCell id="RGKN3ZYOkmtq3_5qExco-88" value="Title/Diagram" parent="RGKN3ZYOkmtq3_5qExco-0" />
        <mxCell id="RGKN3ZYOkmtq3_5qExco-89" value="&lt;font style=&quot;font-size: 12px&quot;&gt;Diagram: Service Client - Channel Device Size &amp;amp; Type Trends&lt;/font&gt;" style="text;strokeColor=none;fillColor=none;html=1;fontSize=12;fontStyle=2;verticalAlign=middle;align=left;shadow=0;glass=0;comic=0;opacity=30;fontColor=#808080;" parent="RGKN3ZYOkmtq3_5qExco-88" vertex="1">
          <mxGeometry x="120" y="630" width="560" height="20" as="geometry" />
        </mxCell>
        <mxCell id="RGKN3ZYOkmtq3_5qExco-90" value="Title/Page" parent="RGKN3ZYOkmtq3_5qExco-0" visible="0" />
        <mxCell id="RGKN3ZYOkmtq3_5qExco-91" value="" style="group;fontSize=10;" parent="RGKN3ZYOkmtq3_5qExco-90" connectable="0" vertex="1">
          <mxGeometry x="120" y="120" width="560" height="45" as="geometry" />
        </mxCell>
        <mxCell id="RGKN3ZYOkmtq3_5qExco-92" value="&lt;font style=&quot;font-size: 12px;&quot;&gt;Base Logical Module - Integration - Constraints - Protocols&lt;/font&gt;" style="text;strokeColor=none;fillColor=none;html=1;fontSize=12;fontStyle=1;verticalAlign=middle;align=left;shadow=0;glass=0;comic=0;opacity=30;fontColor=#808080;" parent="RGKN3ZYOkmtq3_5qExco-91" vertex="1">
          <mxGeometry width="560" height="40" as="geometry" />
        </mxCell>
        <mxCell id="RGKN3ZYOkmtq3_5qExco-93" value="" style="line;strokeWidth=2;html=1;shadow=0;glass=0;comic=0;fillColor=none;fontSize=10;fontColor=#CCCCCC;labelBackgroundColor=none;strokeColor=#CCCCCC;" parent="RGKN3ZYOkmtq3_5qExco-91" vertex="1">
          <mxGeometry y="35" width="560" height="10" as="geometry" />
        </mxCell>
        <mxCell id="RGKN3ZYOkmtq3_5qExco-94" value="About" parent="RGKN3ZYOkmtq3_5qExco-0" />
      </root>
    </mxGraphModel>
  </diagram>
  <diagram name="Service Client/REST/Sequences" id="VLd5_FR37AIF28SkIGUB">
    <mxGraphModel dx="1130" dy="406" grid="1" gridSize="10" guides="1" tooltips="1" connect="1" arrows="1" fold="1" page="1" pageScale="1" pageWidth="827" pageHeight="1169" math="0" shadow="0">
      <root>
        <mxCell id="H1Foetaj1BNU6m1gwenf-0" />
        <mxCell id="H1Foetaj1BNU6m1gwenf-1" value="L" parent="H1Foetaj1BNU6m1gwenf-0" />
        <mxCell id="H1Foetaj1BNU6m1gwenf-15" value="Options" style="html=1;labelBackgroundColor=none;strokeColor=#000000;fontSize=12;fontColor=#000000;align=right;labelPosition=left;verticalLabelPosition=top;verticalAlign=bottom;" parent="H1Foetaj1BNU6m1gwenf-1" vertex="1">
          <mxGeometry x="150" y="230" width="440" height="320" as="geometry" />
        </mxCell>
        <mxCell id="H1Foetaj1BNU6m1gwenf-49" value="Service Agent (ie Browser)" style="shape=umlLifeline;perimeter=lifelinePerimeter;whiteSpace=wrap;html=1;container=1;collapsible=0;recursiveResize=0;outlineConnect=0;labelBackgroundColor=none;strokeColor=#000000;fontSize=12;fontColor=#000000;align=center;" parent="H1Foetaj1BNU6m1gwenf-1" vertex="1">
          <mxGeometry x="120" y="140" width="100" height="400" as="geometry" />
        </mxCell>
        <mxCell id="H1Foetaj1BNU6m1gwenf-50" value="Service &lt;br&gt;API Facade" style="shape=umlLifeline;perimeter=lifelinePerimeter;whiteSpace=wrap;html=1;container=1;collapsible=0;recursiveResize=0;outlineConnect=0;labelBackgroundColor=none;strokeColor=#000000;fontSize=12;fontColor=#000000;align=center;" parent="H1Foetaj1BNU6m1gwenf-1" vertex="1">
          <mxGeometry x="520" y="140" width="100" height="400" as="geometry" />
        </mxCell>
        <mxCell id="H1Foetaj1BNU6m1gwenf-3" value="401 (AuthN)" style="html=1;verticalAlign=bottom;endArrow=open;dashed=1;endSize=8;strokeWidth=1;fontSize=12;fontColor=#000000;" parent="H1Foetaj1BNU6m1gwenf-1" source="H1Foetaj1BNU6m1gwenf-50" target="H1Foetaj1BNU6m1gwenf-49" edge="1">
          <mxGeometry relative="1" as="geometry">
            <mxPoint x="500" y="640" as="sourcePoint" />
            <mxPoint x="399.5" y="640" as="targetPoint" />
            <Array as="points">
              <mxPoint x="210" y="340" />
            </Array>
          </mxGeometry>
        </mxCell>
        <mxCell id="H1Foetaj1BNU6m1gwenf-4" value="200 (GET Returned OK)" style="html=1;verticalAlign=bottom;endArrow=open;dashed=1;endSize=8;strokeWidth=1;fontSize=12;fontColor=#000000;" parent="H1Foetaj1BNU6m1gwenf-1" source="H1Foetaj1BNU6m1gwenf-50" target="H1Foetaj1BNU6m1gwenf-49" edge="1">
          <mxGeometry relative="1" as="geometry">
            <mxPoint x="500" y="640" as="sourcePoint" />
            <mxPoint x="399.5" y="640" as="targetPoint" />
            <Array as="points">
              <mxPoint x="340" y="470" />
              <mxPoint x="190" y="470" />
            </Array>
          </mxGeometry>
        </mxCell>
        <mxCell id="H1Foetaj1BNU6m1gwenf-2" value="403 (AuthZ)" style="html=1;verticalAlign=bottom;endArrow=open;dashed=1;endSize=8;strokeWidth=1;fontSize=12;fontColor=#000000;" parent="H1Foetaj1BNU6m1gwenf-1" source="H1Foetaj1BNU6m1gwenf-50" target="H1Foetaj1BNU6m1gwenf-49" edge="1">
          <mxGeometry relative="1" as="geometry">
            <mxPoint x="270" y="470" as="sourcePoint" />
            <mxPoint x="399.5" y="470" as="targetPoint" />
            <Array as="points">
              <mxPoint x="210" y="360" />
            </Array>
          </mxGeometry>
        </mxCell>
        <mxCell id="H1Foetaj1BNU6m1gwenf-5" value="404 (Not Found)" style="html=1;verticalAlign=bottom;endArrow=open;dashed=1;endSize=8;strokeWidth=1;fontSize=12;fontColor=#000000;" parent="H1Foetaj1BNU6m1gwenf-1" source="H1Foetaj1BNU6m1gwenf-50" target="H1Foetaj1BNU6m1gwenf-49" edge="1">
          <mxGeometry relative="1" as="geometry">
            <mxPoint x="279.5" y="390" as="sourcePoint" />
            <mxPoint x="179.5" y="390" as="targetPoint" />
            <Array as="points">
              <mxPoint x="190" y="270" />
            </Array>
          </mxGeometry>
        </mxCell>
        <mxCell id="H1Foetaj1BNU6m1gwenf-52" value="400 (Bad Request)" style="html=1;verticalAlign=bottom;endArrow=open;dashed=1;endSize=8;strokeWidth=1;fontSize=12;fontColor=#000000;" parent="H1Foetaj1BNU6m1gwenf-1" source="H1Foetaj1BNU6m1gwenf-50" target="H1Foetaj1BNU6m1gwenf-49" edge="1">
          <mxGeometry x="0.9116" y="-210" relative="1" as="geometry">
            <mxPoint x="270" y="300" as="sourcePoint" />
            <mxPoint x="310" y="300" as="targetPoint" />
            <Array as="points">
              <mxPoint x="190" y="250" />
            </Array>
            <mxPoint x="210" y="210" as="offset" />
          </mxGeometry>
        </mxCell>
        <mxCell id="H1Foetaj1BNU6m1gwenf-51" value="GET/POST/PUT/DELETE" style="html=1;verticalAlign=bottom;endArrow=block;strokeWidth=1;fontSize=12;fontColor=#000000;" parent="H1Foetaj1BNU6m1gwenf-1" source="H1Foetaj1BNU6m1gwenf-49" target="H1Foetaj1BNU6m1gwenf-50" edge="1">
          <mxGeometry x="0.0057" width="80" relative="1" as="geometry">
            <mxPoint x="170" y="240" as="sourcePoint" />
            <mxPoint x="250" y="240" as="targetPoint" />
            <Array as="points">
              <mxPoint x="190" y="200" />
            </Array>
            <mxPoint as="offset" />
          </mxGeometry>
        </mxCell>
        <mxCell id="H1Foetaj1BNU6m1gwenf-6" value="408 (Timeout)" style="html=1;verticalAlign=bottom;endArrow=open;dashed=1;endSize=8;strokeWidth=1;fontSize=12;fontColor=#000000;" parent="H1Foetaj1BNU6m1gwenf-1" source="H1Foetaj1BNU6m1gwenf-50" target="H1Foetaj1BNU6m1gwenf-49" edge="1">
          <mxGeometry x="-0.0003" relative="1" as="geometry">
            <mxPoint x="270" y="280" as="sourcePoint" />
            <mxPoint x="179.92857142857144" y="280" as="targetPoint" />
            <Array as="points">
              <mxPoint x="270" y="290" />
            </Array>
            <mxPoint as="offset" />
          </mxGeometry>
        </mxCell>
        <mxCell id="H1Foetaj1BNU6m1gwenf-8" value="302 (Redirect)" style="html=1;verticalAlign=bottom;endArrow=open;dashed=1;endSize=8;strokeWidth=1;fontSize=12;fontColor=#000000;" parent="H1Foetaj1BNU6m1gwenf-1" source="H1Foetaj1BNU6m1gwenf-50" target="H1Foetaj1BNU6m1gwenf-49" edge="1">
          <mxGeometry relative="1" as="geometry">
            <mxPoint x="379.5" y="390" as="sourcePoint" />
            <mxPoint x="179.92857142857144" y="390" as="targetPoint" />
            <Array as="points">
              <mxPoint x="200" y="430" />
            </Array>
          </mxGeometry>
        </mxCell>
        <mxCell id="H1Foetaj1BNU6m1gwenf-10" value="201 (POST Created OK)" style="html=1;verticalAlign=bottom;endArrow=open;dashed=1;endSize=8;strokeWidth=1;fontSize=12;fontColor=#000000;" parent="H1Foetaj1BNU6m1gwenf-1" source="H1Foetaj1BNU6m1gwenf-50" edge="1">
          <mxGeometry relative="1" as="geometry">
            <mxPoint x="369.57" y="490" as="sourcePoint" />
            <mxPoint x="169.99857142857144" y="490" as="targetPoint" />
            <Array as="points">
              <mxPoint x="340.07" y="490" />
              <mxPoint x="190.07" y="490" />
            </Array>
          </mxGeometry>
        </mxCell>
        <mxCell id="H1Foetaj1BNU6m1gwenf-12" value="202 (PUT Update Accepted OK)" style="html=1;verticalAlign=bottom;endArrow=open;dashed=1;endSize=8;strokeWidth=1;fontSize=12;fontColor=#000000;" parent="H1Foetaj1BNU6m1gwenf-1" source="H1Foetaj1BNU6m1gwenf-50" target="H1Foetaj1BNU6m1gwenf-49" edge="1">
          <mxGeometry relative="1" as="geometry">
            <mxPoint x="370" y="500" as="sourcePoint" />
            <mxPoint x="179.9985714285715" y="500" as="targetPoint" />
            <Array as="points">
              <mxPoint x="350" y="510" />
              <mxPoint x="200" y="510" />
            </Array>
          </mxGeometry>
        </mxCell>
        <mxCell id="H1Foetaj1BNU6m1gwenf-17" value="204 (DELETE Accepted OK)" style="html=1;verticalAlign=bottom;endArrow=open;dashed=1;endSize=8;strokeWidth=1;fontSize=12;fontColor=#000000;" parent="H1Foetaj1BNU6m1gwenf-1" source="H1Foetaj1BNU6m1gwenf-50" edge="1">
          <mxGeometry relative="1" as="geometry">
            <mxPoint x="629.5000000000002" y="530" as="sourcePoint" />
            <mxPoint x="169.66666666666674" y="530" as="targetPoint" />
            <Array as="points">
              <mxPoint x="350" y="530" />
              <mxPoint x="200" y="530" />
            </Array>
          </mxGeometry>
        </mxCell>
        <mxCell id="H1Foetaj1BNU6m1gwenf-18" value="Note:&lt;br&gt;&lt;div style=&quot;&quot;&gt;&lt;span&gt;May include Redirection&lt;/span&gt;&lt;/div&gt;Url" style="text;html=1;strokeColor=none;fillColor=none;align=left;verticalAlign=middle;whiteSpace=wrap;rounded=0;sketch=0;fontColor=#5C5C5C;" parent="H1Foetaj1BNU6m1gwenf-1" vertex="1">
          <mxGeometry x="600" y="500" width="40" height="20" as="geometry" />
        </mxCell>
        <mxCell id="H1Foetaj1BNU6m1gwenf-9" value="Trend" style="" parent="H1Foetaj1BNU6m1gwenf-0" />
        <mxCell id="H1Foetaj1BNU6m1gwenf-20" value="Diagram" parent="H1Foetaj1BNU6m1gwenf-0" />
        <mxCell id="H1Foetaj1BNU6m1gwenf-42" value="Title/Diagram" parent="H1Foetaj1BNU6m1gwenf-0" />
        <mxCell id="H1Foetaj1BNU6m1gwenf-43" value="&lt;font style=&quot;font-size: 12px&quot;&gt;Diagram: Service Clients - REST HTTP Code Response Options&lt;/font&gt;" style="text;strokeColor=none;fillColor=none;html=1;fontSize=12;fontStyle=2;verticalAlign=middle;align=left;shadow=0;glass=0;comic=0;opacity=30;fontColor=#808080;" parent="H1Foetaj1BNU6m1gwenf-42" vertex="1">
          <mxGeometry x="120" y="565" width="560" height="20" as="geometry" />
        </mxCell>
        <mxCell id="H1Foetaj1BNU6m1gwenf-44" value="Title/Page" parent="H1Foetaj1BNU6m1gwenf-0" visible="0" />
        <mxCell id="H1Foetaj1BNU6m1gwenf-45" value="" style="group;fontSize=10;" parent="H1Foetaj1BNU6m1gwenf-44" connectable="0" vertex="1">
          <mxGeometry x="120" y="120" width="560" height="45" as="geometry" />
        </mxCell>
        <mxCell id="H1Foetaj1BNU6m1gwenf-46" value="&lt;font style=&quot;font-size: 12px;&quot;&gt;Base Logical Module - Integration - Constraints - Protocols&lt;/font&gt;" style="text;strokeColor=none;fillColor=none;html=1;fontSize=12;fontStyle=1;verticalAlign=middle;align=left;shadow=0;glass=0;comic=0;opacity=30;fontColor=#808080;" parent="H1Foetaj1BNU6m1gwenf-45" vertex="1">
          <mxGeometry width="560" height="40" as="geometry" />
        </mxCell>
        <mxCell id="H1Foetaj1BNU6m1gwenf-47" value="" style="line;strokeWidth=2;html=1;shadow=0;glass=0;comic=0;fillColor=none;fontSize=10;fontColor=#CCCCCC;labelBackgroundColor=none;strokeColor=#CCCCCC;" parent="H1Foetaj1BNU6m1gwenf-45" vertex="1">
          <mxGeometry y="35" width="560" height="10" as="geometry" />
        </mxCell>
        <mxCell id="H1Foetaj1BNU6m1gwenf-48" value="About" parent="H1Foetaj1BNU6m1gwenf-0" />
      </root>
    </mxGraphModel>
  </diagram>
</mxfile>
